<svg xmlns="http://www.w3.org/2000/svg" xmlns:xlink="http://www.w3.org/1999/xlink" width="1000" zoomAndPan="magnify" viewBox="0 0 750 749.999995" height="1000" preserveAspectRatio="xMidYMid meet" version="1.0"><defs><clipPath id="f83aa84799"><path d="M 122 153 L 628.078125 153 L 628.078125 657.269531 L 122 657.269531 Z M 122 153 " clip-rule="nonzero"/></clipPath><clipPath id="03dd6d01f7"><path d="M 327 92.519531 L 558 92.519531 L 558 323 L 327 323 Z M 327 92.519531 " clip-rule="nonzero"/></clipPath></defs><g clip-path="url(#f83aa84799)"><path fill="#000000" d="M 621.890625 603.863281 L 496.273438 477.90625 C 496.332031 477.847656 496.394531 477.785156 496.453125 477.726562 C 514.535156 452.621094 526.492188 424.449219 532.078125 393.996094 C 537.484375 364.566406 536.402344 333.691406 528.953125 304.859375 C 527.753906 300.234375 524.507812 296.511719 520.0625 294.710938 C 515.558594 292.90625 510.632812 293.269531 506.425781 295.851562 C 500.71875 299.335938 497.957031 306 499.636719 312.488281 C 507.207031 341.859375 507.085938 372.972656 499.277344 402.40625 C 491.226562 432.738281 475.128906 460.546875 452.78125 482.773438 C 419.257812 516.109375 374.800781 534.488281 327.644531 534.546875 C 327.582031 534.546875 327.464844 534.546875 327.402344 534.546875 C 280.304688 534.546875 236.210938 516.289062 203.230469 483.132812 C 134.863281 414.476562 135.644531 302.519531 204.910156 233.625 C 232.664062 205.992188 267.808594 188.695312 306.496094 183.46875 C 314.488281 182.386719 320.195312 175.242188 319.472656 167.132812 C 319.113281 162.988281 317.070312 159.261719 313.828125 156.621094 C 310.582031 154.039062 306.496094 152.898438 302.414062 153.496094 C 257.238281 159.683594 216.207031 179.984375 183.703125 212.300781 C 144.417969 251.402344 122.609375 303.296875 122.1875 358.496094 C 121.828125 413.699219 142.914062 465.535156 181.722656 504.515625 C 216.503906 539.472656 262.824219 560.734375 312.144531 564.28125 C 317.132812 564.640625 322.117188 564.820312 327.101562 564.820312 C 370.835938 564.820312 413.671875 551.003906 449.234375 525.175781 C 449.296875 525.117188 449.355469 525.058594 449.414062 525.058594 L 574.851562 650.832031 C 578.757812 654.796875 584.042969 656.960938 589.628906 657.019531 C 595.398438 657.078125 600.863281 654.855469 604.949219 650.773438 L 621.769531 633.953125 C 625.796875 629.929688 628.019531 624.585938 628.078125 618.878906 C 628.019531 613.230469 625.855469 607.886719 621.890625 603.863281 Z M 621.890625 603.863281 " fill-opacity="1" fill-rule="nonzero"/></g><g clip-path="url(#03dd6d01f7)"><path fill="#000000" d="M 550.941406 198.546875 L 538.507812 193.921875 C 529.074219 190.4375 520.003906 185.871094 511.53125 180.464844 C 503.183594 175.058594 495.371094 168.8125 488.285156 161.726562 C 481.253906 154.699219 474.949219 146.890625 469.539062 138.480469 C 464.074219 130.011719 459.566406 120.941406 456.082031 111.511719 L 451.457031 99.078125 C 450.078125 95.292969 446.410156 92.710938 442.265625 92.710938 C 438.179688 92.710938 434.457031 95.292969 433.074219 99.140625 L 428.449219 111.570312 C 424.964844 121.003906 420.398438 130.070312 414.992188 138.542969 C 409.585938 146.890625 403.339844 154.699219 396.25 161.785156 C 389.21875 168.8125 381.410156 175.121094 373 180.527344 C 364.53125 185.992188 355.457031 190.496094 346.027344 193.980469 L 333.589844 198.605469 C 329.746094 200.046875 327.164062 203.710938 327.164062 207.796875 C 327.164062 211.878906 329.746094 215.605469 333.589844 216.984375 L 346.027344 221.609375 C 355.457031 225.09375 364.53125 229.660156 373 235.066406 C 381.351562 240.472656 389.160156 246.71875 396.25 253.804688 C 403.277344 260.832031 409.585938 268.640625 414.992188 277.050781 C 420.460938 285.519531 424.964844 294.589844 428.449219 304.019531 L 433.074219 316.453125 C 434.515625 320.296875 438.179688 322.878906 442.265625 322.878906 C 446.351562 322.878906 450.078125 320.296875 451.457031 316.453125 L 456.082031 304.019531 C 459.566406 294.589844 464.132812 285.519531 469.539062 277.050781 C 474.949219 268.703125 481.195312 260.894531 488.285156 253.804688 C 495.3125 246.777344 503.121094 240.472656 511.53125 235.066406 C 520.003906 229.597656 529.074219 225.09375 538.507812 221.609375 L 550.941406 216.984375 C 554.785156 215.542969 557.371094 211.878906 557.371094 207.796875 C 557.371094 203.710938 554.785156 199.988281 550.941406 198.546875 Z M 499.578125 207.796875 C 498.257812 208.636719 496.875 209.417969 495.554688 210.320312 C 485.398438 216.804688 475.96875 224.433594 467.4375 232.960938 C 458.90625 241.492188 451.277344 250.921875 444.789062 261.074219 C 443.949219 262.394531 443.109375 263.714844 442.265625 265.097656 C 441.425781 263.777344 440.644531 262.394531 439.742188 261.074219 C 433.253906 250.921875 425.625 241.492188 417.09375 232.960938 C 408.566406 224.433594 399.132812 216.804688 388.980469 210.320312 C 387.660156 209.476562 386.335938 208.636719 384.957031 207.796875 C 386.277344 206.953125 387.660156 206.175781 388.980469 205.273438 C 399.132812 198.785156 408.566406 191.15625 417.09375 182.628906 C 425.625 174.097656 433.253906 164.667969 439.742188 154.519531 C 440.585938 153.195312 441.425781 151.875 442.265625 150.492188 C 443.109375 151.816406 443.890625 153.195312 444.789062 154.519531 C 451.277344 164.667969 458.90625 174.097656 467.4375 182.628906 C 475.96875 191.15625 485.398438 198.785156 495.554688 205.273438 C 496.875 206.113281 498.195312 206.953125 499.578125 207.796875 Z M 499.578125 207.796875 " fill-opacity="1" fill-rule="nonzero"/></g><path stroke-linecap="round" transform="matrix(0.75, 0, 0, 0.75, 235.773346, 283.174079)" fill="none" stroke-linejoin="miter" d="M 22.500123 22.502271 L 174.135547 22.502271 " stroke="#000000" stroke-width="45" stroke-opacity="1" stroke-miterlimit="4"/><path stroke-linecap="round" transform="matrix(0.75, 0, 0, 0.75, 235.773346, 342.000003)" fill="none" stroke-linejoin="miter" d="M 22.500123 22.499997 L 222.734507 22.499997 " stroke="#000000" stroke-width="45" stroke-opacity="1" stroke-miterlimit="4"/><path stroke-linecap="round" transform="matrix(0.75, 0, 0, 0.75, 235.773346, 400.825928)" fill="none" stroke-linejoin="miter" d="M 22.500123 22.497723 L 222.734507 22.497723 " stroke="#000000" stroke-width="45" stroke-opacity="1" stroke-miterlimit="4"/></svg>